<svg width="32" height="32" viewBox="0 0 32 32" fill="none" xmlns="http://www.w3.org/2000/svg">
<rect width="32" height="32" fill="white"/>
<path d="M4.099 9.31933H7.88587L14.4943 17.8403V12.0504C14.4943 11.479 14.3348 11.0224 14.0158 10.6807C13.6968 10.3333 13.243 10.1401 12.6545 10.1008V9.31933H17.1097V10.1008C16.4881 10.1681 16.0426 10.3585 15.7731 10.6723C15.5036 10.9804 15.3689 11.4398 15.3689 12.0504V21.7479H14.4201L6.89584 11.9328V18.7311C6.89584 19.5098 7.0691 20.0784 7.41561 20.437C7.76762 20.7899 8.20213 20.9664 8.71915 20.9664H8.9254V21.7479H4V20.9664H4.33826C4.82228 20.9664 5.22929 20.7703 5.5593 20.3782C5.88931 19.986 6.05431 19.4818 6.05431 18.8655V10.8319C5.6858 10.3445 5.21554 10.1008 4.64352 10.1008H4.099V9.31933Z" fill="#4B473F"/>
<path d="M25.9127 10.2689L26.68 9.15966H27.2657L27.34 13.4538H26.5975C26.2124 12.2213 25.6652 11.2997 24.9557 10.6891C24.2461 10.0728 23.4624 9.76471 22.6043 9.76471C21.8728 9.76471 21.276 9.96919 20.814 10.3782C20.3575 10.7815 20.1293 11.2661 20.1293 11.8319C20.1293 12.1681 20.22 12.4762 20.4015 12.7563C20.583 13.0364 20.8745 13.2773 21.276 13.479C21.6831 13.6751 22.3926 13.8796 23.4046 14.0924C24.5871 14.3445 25.4039 14.5714 25.8549 14.7731C26.57 15.098 27.1062 15.5294 27.4637 16.0672C27.8212 16.5994 28 17.2493 28 18.0168C28 19.1653 27.6122 20.0812 26.8367 20.7647C25.9017 21.5882 24.7439 22 23.3634 22C22.0928 22 20.9323 21.549 19.8817 20.6471L18.9165 21.8739H18.3142V17.2689H19.032C19.7525 19.8964 21.2155 21.2101 23.4211 21.2101C24.3231 21.2101 25.0244 21 25.5249 20.5798C26.0254 20.1541 26.2757 19.6247 26.2757 18.9916C26.2757 18.549 26.1657 18.1793 25.9457 17.8824C25.7257 17.5798 25.3847 17.3361 24.9227 17.1513C24.6696 17.0504 24.0426 16.8908 23.0416 16.6723C21.6941 16.3697 20.7315 16.0588 20.154 15.7395C19.582 15.4146 19.1612 15.0196 18.8917 14.5546C18.6222 14.084 18.4875 13.5126 18.4875 12.8403C18.4875 11.7087 18.8587 10.7871 19.6012 10.0756C20.3493 9.35854 21.3503 9 22.6043 9C23.8089 9 24.9117 9.42297 25.9127 10.2689Z" fill="#4B473F"/>
</svg>
