<svg width="149" height="27" viewBox="0 0 149 27" fill="none" xmlns="http://www.w3.org/2000/svg">
<path d="M0.38208 1.0752H2.45044L7.677 7.88379V2.95605C7.677 2.45996 7.56372 2.09277 7.33716 1.85449C7.13013 1.63574 6.82153 1.52246 6.41138 1.51465V1.0752H9.44067V1.51465C9.13208 1.51465 8.90161 1.55762 8.74927 1.64355C8.59692 1.72949 8.46411 1.88574 8.35083 2.1123C8.23755 2.33887 8.18091 2.58691 8.18091 2.85645V9.74121H7.63013L2.22192 2.65723V7.88379C2.22192 8.35645 2.34106 8.70996 2.57935 8.94434C2.81763 9.1748 3.18677 9.29395 3.68677 9.30176V9.74121H0.38208V9.30176C0.796143 9.28613 1.12427 9.15137 1.36646 8.89746C1.60864 8.63965 1.72974 8.3252 1.72974 7.9541V2.07715L1.63013 1.97168C1.43481 1.76074 1.29614 1.63574 1.21411 1.59668C1.10083 1.54199 0.954346 1.51465 0.774658 1.51465H0.38208V1.0752ZM13.8645 0.893555H14.2571L17.3684 8.82129C17.4934 9.1416 17.7493 9.30176 18.136 9.30176H18.4055V9.74121H14.9485V9.30176H15.2239C15.5833 9.30176 15.8372 9.2627 15.9856 9.18457C16.0872 9.12988 16.1379 9.0459 16.1379 8.93262C16.1379 8.86621 16.1243 8.7959 16.0969 8.72168L15.3762 6.88184H11.9543L11.55 7.93652C11.4446 8.21777 11.3918 8.44043 11.3918 8.60449C11.3918 8.7959 11.4797 8.95996 11.6555 9.09668C11.8352 9.2334 12.095 9.30176 12.4348 9.30176H12.7278V9.74121H9.58716V9.30176C9.9231 9.30176 10.1887 9.22949 10.384 9.08496C10.5793 8.93652 10.759 8.65723 10.9231 8.24707L13.8645 0.893555ZM13.6946 2.56348L12.1418 6.4248H15.2063L13.6946 2.56348ZM18.8743 1.0752H25.9055L26.0754 4.35059H25.6711C25.4055 2.4248 24.7102 1.46191 23.5852 1.46191C23.3586 1.46191 23.2024 1.50098 23.1165 1.5791C23.0344 1.65723 22.9934 1.78613 22.9934 1.96582V8.8916C22.9934 9.03223 23.0344 9.13574 23.1165 9.20215C23.1985 9.26855 23.3333 9.30176 23.5208 9.30176H24.3938V9.74121H20.3684V9.30176H21.3645C21.4973 9.30176 21.5989 9.26855 21.6692 9.20215C21.7395 9.13574 21.7747 9.04785 21.7747 8.93848V1.91309C21.7747 1.76465 21.7297 1.65332 21.6399 1.5791C21.55 1.50098 21.4055 1.46191 21.2063 1.46191C20.6399 1.46191 20.1672 1.72949 19.7883 2.26465C19.4758 2.70605 19.2512 3.40137 19.1145 4.35059H18.6868L18.8743 1.0752ZM30.5403 0.893555H30.9329L34.0442 8.82129C34.1692 9.1416 34.425 9.30176 34.8118 9.30176H35.0813V9.74121H31.6243V9.30176H31.8997C32.259 9.30176 32.5129 9.2627 32.6614 9.18457C32.7629 9.12988 32.8137 9.0459 32.8137 8.93262C32.8137 8.86621 32.8 8.7959 32.7727 8.72168L32.052 6.88184H28.6301L28.2258 7.93652C28.1204 8.21777 28.0676 8.44043 28.0676 8.60449C28.0676 8.7959 28.1555 8.95996 28.3313 9.09668C28.511 9.2334 28.7708 9.30176 29.1106 9.30176H29.4036V9.74121H26.2629V9.30176C26.5989 9.30176 26.8645 9.22949 27.0598 9.08496C27.2551 8.93652 27.4348 8.65723 27.5989 8.24707L30.5403 0.893555ZM30.3704 2.56348L28.8176 6.4248H31.8821L30.3704 2.56348ZM35.3977 1.0752H39.4114V1.51465H38.4504C38.2981 1.51465 38.1848 1.55566 38.1106 1.6377C38.0403 1.71582 38.0051 1.84082 38.0051 2.0127V8.85059C38.0051 9.01465 38.05 9.13184 38.1399 9.20215C38.2336 9.26855 38.4192 9.30176 38.6965 9.30176H39.9153C40.5637 9.30176 41.093 9.08691 41.5032 8.65723C41.9172 8.22363 42.218 7.47363 42.4055 6.40723H42.8157L42.6165 9.74121H35.3977V9.30176H36.1067C36.3489 9.30176 36.5188 9.25684 36.6165 9.16699C36.7141 9.07324 36.7629 8.9248 36.7629 8.72168V1.9541C36.7629 1.80957 36.7219 1.7002 36.6399 1.62598C36.5579 1.55176 36.4368 1.51465 36.2766 1.51465H35.3977V1.0752ZM42.9563 1.0752H46.7532V1.51465H46.3313C45.9797 1.51465 45.7512 1.54199 45.6458 1.59668C45.5403 1.65137 45.4875 1.72754 45.4875 1.8252C45.4875 1.92676 45.5149 2.01855 45.5696 2.10059L47.7727 5.5166L49.3547 2.60449C49.425 2.47559 49.4602 2.33496 49.4602 2.18262C49.4602 1.97949 49.3938 1.81738 49.261 1.69629C49.1282 1.5752 48.9387 1.51465 48.6926 1.51465H48.2883V1.0752H51.593V1.51465C51.2141 1.51465 50.9153 1.58105 50.6965 1.71387C50.4778 1.84668 50.2668 2.09668 50.0637 2.46387L48.0657 6.12598V8.86816C48.0657 9.0127 48.1067 9.11621 48.1887 9.17871C48.302 9.26074 48.47 9.30176 48.6926 9.30176H49.4368V9.74121H45.4583V9.30176H46.2434C46.4543 9.30176 46.6067 9.26465 46.7004 9.19043C46.7942 9.1123 46.8411 9.00488 46.8411 8.86816V6.20215L44.1516 2.0127C44.0344 1.83301 43.8977 1.70801 43.7415 1.6377C43.5852 1.56348 43.3235 1.52246 42.9563 1.51465V1.0752ZM55.6653 0.893555H56.0579L59.1692 8.82129C59.2942 9.1416 59.55 9.30176 59.9368 9.30176H60.2063V9.74121H56.7493V9.30176H57.0247C57.384 9.30176 57.6379 9.2627 57.7864 9.18457C57.8879 9.12988 57.9387 9.0459 57.9387 8.93262C57.9387 8.86621 57.925 8.7959 57.8977 8.72168L57.177 6.88184H53.7551L53.3508 7.93652C53.2454 8.21777 53.1926 8.44043 53.1926 8.60449C53.1926 8.7959 53.2805 8.95996 53.4563 9.09668C53.636 9.2334 53.8958 9.30176 54.2356 9.30176H54.5286V9.74121H51.3879V9.30176C51.7239 9.30176 51.9895 9.22949 52.1848 9.08496C52.3801 8.93652 52.5598 8.65723 52.7239 8.24707L55.6653 0.893555ZM55.4954 2.56348L53.9426 6.4248H57.0071L55.4954 2.56348ZM69.0364 1.73145L69.5637 0.975586H69.9915L70.0266 4.13379H69.6399C69.3977 3.16504 69.0383 2.45801 68.5618 2.0127C68.0891 1.56738 67.5442 1.34473 66.927 1.34473C66.4114 1.34473 65.9895 1.49902 65.6614 1.80762C65.3333 2.11621 65.1692 2.49316 65.1692 2.93848C65.1692 3.21582 65.2317 3.45996 65.3567 3.6709C65.4817 3.87793 65.6672 4.04785 65.9133 4.18066C66.1633 4.30957 66.6321 4.44824 67.3196 4.59668C68.2844 4.80762 68.9602 5.02051 69.3469 5.23535C69.7375 5.4502 70.0286 5.72168 70.22 6.0498C70.4114 6.37402 70.5071 6.75488 70.5071 7.19238C70.5071 7.97363 70.2434 8.62207 69.7161 9.1377C69.1926 9.64941 68.5149 9.90527 67.6829 9.90527C66.7883 9.90527 66.011 9.61621 65.3508 9.03809L64.6887 9.84668H64.2668V6.48926H64.6887C64.8528 7.41504 65.22 8.14551 65.7903 8.68066C66.3606 9.21582 67.0032 9.4834 67.718 9.4834C68.2961 9.4834 68.7668 9.31348 69.1301 8.97363C69.4973 8.62988 69.6809 8.21387 69.6809 7.72559C69.6809 7.44824 69.6125 7.20605 69.4758 6.99902C69.3391 6.78809 69.1223 6.6123 68.8254 6.47168C68.5286 6.32715 67.9446 6.15332 67.0735 5.9502C66.1165 5.72363 65.4641 5.46973 65.1165 5.18848C64.6282 4.79004 64.384 4.22559 64.384 3.49512C64.384 2.7334 64.6262 2.11035 65.1106 1.62598C65.5989 1.1377 66.2219 0.893555 66.9797 0.893555C67.343 0.893555 67.6887 0.958008 68.0168 1.08691C68.345 1.21582 68.6848 1.43066 69.0364 1.73145ZM71.6086 1.0752H75.3059V1.51465H74.6262C74.3879 1.51465 74.2317 1.55762 74.1575 1.64355C74.0872 1.72559 74.052 1.92871 74.052 2.25293V4.9248H78.0188V2.25293C78.0188 1.91699 77.9836 1.70996 77.9133 1.63184C77.8469 1.55371 77.6868 1.51465 77.4329 1.51465H76.8V1.0752H80.4797V1.51465H79.8059C79.6379 1.51465 79.5188 1.53613 79.4485 1.5791C79.3821 1.62207 79.3274 1.69629 79.2844 1.80176C79.261 1.86816 79.2493 2.04199 79.2493 2.32324V8.55762C79.2493 8.8584 79.2747 9.04004 79.3254 9.10254C79.427 9.23535 79.6125 9.30176 79.8821 9.30176H80.4797V9.74121H76.8V9.30176H77.4329C77.6829 9.30176 77.8528 9.2334 77.9426 9.09668C77.9934 9.02246 78.0188 8.82715 78.0188 8.51074V5.49902H74.052V8.55762C74.052 8.8623 74.0754 9.0459 74.1223 9.1084C74.22 9.2373 74.3879 9.30176 74.6262 9.30176H75.3059V9.74121H71.6086V9.30176H72.3176C72.4426 9.30176 72.5422 9.27637 72.6165 9.22559C72.6907 9.1748 72.7454 9.10254 72.7805 9.00879C72.8 8.94629 72.8098 8.78027 72.8098 8.51074V2.25293C72.8098 1.92871 72.7727 1.72559 72.6985 1.64355C72.6282 1.55762 72.4719 1.51465 72.2297 1.51465H71.6086V1.0752ZM81.4875 1.0752H85.4836V1.51465H84.7981C84.4934 1.51465 84.3 1.55371 84.218 1.63184C84.1399 1.70605 84.1008 1.86621 84.1008 2.1123V8.6748C84.1008 8.93652 84.136 9.10059 84.2063 9.16699C84.3 9.25684 84.47 9.30176 84.7161 9.30176H85.4836V9.74121H81.4875V9.30176H82.2434C82.509 9.30176 82.6809 9.2627 82.759 9.18457C82.8372 9.10645 82.8762 8.93652 82.8762 8.6748V2.1123C82.8762 1.8623 82.8411 1.70801 82.7708 1.64941C82.6614 1.55957 82.4602 1.51465 82.1672 1.51465H81.4875V1.0752ZM86.2336 1.0752H90.7102C91.5774 1.0752 92.2493 1.27246 92.7258 1.66699C93.2063 2.06152 93.4465 2.5791 93.4465 3.21973C93.4465 3.60254 93.3508 3.94434 93.1594 4.24512C92.9719 4.54199 92.6985 4.78027 92.3391 4.95996C91.9836 5.13574 91.4231 5.2627 90.6575 5.34082C91.2161 5.49316 91.6008 5.64355 91.8118 5.79199C92.0227 5.93652 92.1907 6.12598 92.3157 6.36035C92.4446 6.59082 92.5911 7.06348 92.7551 7.77832C92.8723 8.29004 92.9973 8.63965 93.1301 8.82715C93.2317 8.97168 93.3411 9.04395 93.4583 9.04395C93.5793 9.04395 93.6907 8.95605 93.7922 8.78027C93.8977 8.60059 93.9622 8.28613 93.9856 7.83691H94.384C94.3098 9.16504 93.8196 9.8291 92.9133 9.8291C92.6282 9.8291 92.3801 9.75684 92.1692 9.6123C91.9622 9.46777 91.8059 9.25488 91.7004 8.97363C91.6184 8.7627 91.5266 8.20996 91.425 7.31543C91.3665 6.7959 91.2727 6.42676 91.1438 6.20801C91.0188 5.98926 90.8215 5.81348 90.552 5.68066C90.2825 5.54785 89.9602 5.48145 89.5852 5.48145H88.8762V8.88574C88.8762 9.03027 88.9133 9.13184 88.9875 9.19043C89.0813 9.26465 89.2278 9.30176 89.427 9.30176H90.259V9.74121H86.2336V9.30176H87.0833C87.2708 9.30176 87.4075 9.26465 87.4934 9.19043C87.5833 9.11621 87.6282 9.01465 87.6282 8.88574V1.95996C87.6282 1.81152 87.5833 1.7002 87.4934 1.62598C87.4036 1.55176 87.2668 1.51465 87.0833 1.51465H86.2336V1.0752ZM88.8762 5.05957H89.9016C90.5891 5.05957 91.1262 4.93066 91.5129 4.67285C91.9036 4.41113 92.0989 3.94824 92.0989 3.28418C92.0989 2.82715 92.0247 2.46582 91.8762 2.2002C91.7317 1.93457 91.5403 1.75293 91.302 1.65527C91.0637 1.55762 90.595 1.50879 89.8958 1.50879C89.4348 1.50879 89.1497 1.54199 89.0403 1.6084C88.9309 1.6709 88.8762 1.78027 88.8762 1.93652V5.05957ZM99.1946 0.893555C99.925 0.893555 100.609 1.08691 101.245 1.47363C101.886 1.85645 102.386 2.39355 102.745 3.08496C103.109 3.77246 103.29 4.54785 103.29 5.41113C103.29 6.27441 103.109 7.05371 102.745 7.74902C102.382 8.44434 101.882 8.9873 101.245 9.37793C100.613 9.76465 99.9407 9.95801 99.2297 9.95801C98.5344 9.95801 97.8821 9.76855 97.2727 9.38965C96.6633 9.00684 96.1731 8.46191 95.802 7.75488C95.4348 7.04395 95.2512 6.25684 95.2512 5.39355C95.2512 4.54199 95.429 3.77441 95.7844 3.09082C96.1438 2.40332 96.634 1.86621 97.2551 1.47949C97.8762 1.08887 98.5227 0.893555 99.1946 0.893555ZM99.2883 1.34473C98.5266 1.34473 97.9094 1.66113 97.4368 2.29395C96.9641 2.92676 96.7278 3.95801 96.7278 5.3877C96.7278 6.93848 96.97 8.01074 97.4543 8.60449C97.9387 9.19824 98.5383 9.49512 99.2532 9.49512C99.7532 9.49512 100.193 9.36035 100.572 9.09082C100.95 8.82129 101.251 8.39355 101.474 7.80762C101.7 7.22168 101.814 6.45215 101.814 5.49902C101.814 4.45996 101.708 3.64941 101.497 3.06738C101.286 2.48145 100.986 2.04785 100.595 1.7666C100.204 1.48535 99.7688 1.34473 99.2883 1.34473ZM104.427 1.0752H108.388V1.51465H107.544C107.365 1.51465 107.226 1.56152 107.128 1.65527C107.031 1.74902 106.982 1.86816 106.982 2.0127V6.03809L110.245 2.55176C110.433 2.34863 110.527 2.15723 110.527 1.97754C110.527 1.84082 110.462 1.72949 110.333 1.64355C110.204 1.55762 109.993 1.51465 109.7 1.51465H109.46V1.0752H113.017V1.51465H112.741C112.503 1.51465 112.241 1.58496 111.956 1.72559C111.671 1.86621 111.407 2.06152 111.165 2.31152L109.156 4.40332L112.032 8.64551C112.193 8.88379 112.359 9.05371 112.531 9.15527C112.702 9.25293 112.906 9.30176 113.14 9.30176H113.456V9.74121H109.548V9.30176H109.993C110.318 9.30176 110.532 9.27441 110.638 9.21973C110.747 9.16504 110.802 9.09668 110.802 9.01465C110.802 8.94043 110.779 8.86621 110.732 8.79199L108.341 5.27637L106.982 6.73535V8.86816C106.982 9.00098 107.021 9.09863 107.099 9.16113C107.224 9.25488 107.372 9.30176 107.544 9.30176H108.388V9.74121H104.427V9.30176H105.189C105.384 9.30176 105.529 9.2627 105.622 9.18457C105.716 9.10254 105.763 8.99707 105.763 8.86816V1.94824C105.763 1.81152 105.71 1.70605 105.605 1.63184C105.499 1.55371 105.322 1.51465 105.072 1.51465H104.427V1.0752ZM117.874 0.893555C118.605 0.893555 119.288 1.08691 119.925 1.47363C120.566 1.85645 121.066 2.39355 121.425 3.08496C121.788 3.77246 121.97 4.54785 121.97 5.41113C121.97 6.27441 121.788 7.05371 121.425 7.74902C121.062 8.44434 120.562 8.9873 119.925 9.37793C119.292 9.76465 118.62 9.95801 117.909 9.95801C117.214 9.95801 116.562 9.76855 115.952 9.38965C115.343 9.00684 114.853 8.46191 114.482 7.75488C114.115 7.04395 113.931 6.25684 113.931 5.39355C113.931 4.54199 114.109 3.77441 114.464 3.09082C114.823 2.40332 115.314 1.86621 115.935 1.47949C116.556 1.08887 117.202 0.893555 117.874 0.893555ZM117.968 1.34473C117.206 1.34473 116.589 1.66113 116.116 2.29395C115.644 2.92676 115.407 3.95801 115.407 5.3877C115.407 6.93848 115.65 8.01074 116.134 8.60449C116.618 9.19824 117.218 9.49512 117.933 9.49512C118.433 9.49512 118.872 9.36035 119.251 9.09082C119.63 8.82129 119.931 8.39355 120.154 7.80762C120.38 7.22168 120.493 6.45215 120.493 5.49902C120.493 4.45996 120.388 3.64941 120.177 3.06738C119.966 2.48145 119.665 2.04785 119.275 1.7666C118.884 1.48535 118.448 1.34473 117.968 1.34473ZM122.925 1.0752H127.402C128.269 1.0752 128.941 1.27246 129.417 1.66699C129.898 2.06152 130.138 2.5791 130.138 3.21973C130.138 3.60254 130.042 3.94434 129.851 4.24512C129.663 4.54199 129.39 4.78027 129.031 4.95996C128.675 5.13574 128.115 5.2627 127.349 5.34082C127.907 5.49316 128.292 5.64355 128.503 5.79199C128.714 5.93652 128.882 6.12598 129.007 6.36035C129.136 6.59082 129.282 7.06348 129.447 7.77832C129.564 8.29004 129.689 8.63965 129.822 8.82715C129.923 8.97168 130.032 9.04395 130.15 9.04395C130.271 9.04395 130.382 8.95605 130.484 8.78027C130.589 8.60059 130.654 8.28613 130.677 7.83691H131.075C131.001 9.16504 130.511 9.8291 129.605 9.8291C129.32 9.8291 129.072 9.75684 128.861 9.6123C128.654 9.46777 128.497 9.25488 128.392 8.97363C128.31 8.7627 128.218 8.20996 128.116 7.31543C128.058 6.7959 127.964 6.42676 127.835 6.20801C127.71 5.98926 127.513 5.81348 127.243 5.68066C126.974 5.54785 126.652 5.48145 126.277 5.48145H125.568V8.88574C125.568 9.03027 125.605 9.13184 125.679 9.19043C125.773 9.26465 125.919 9.30176 126.118 9.30176H126.95V9.74121H122.925V9.30176H123.775C123.962 9.30176 124.099 9.26465 124.185 9.19043C124.275 9.11621 124.32 9.01465 124.32 8.88574V1.95996C124.32 1.81152 124.275 1.7002 124.185 1.62598C124.095 1.55176 123.958 1.51465 123.775 1.51465H122.925V1.0752ZM125.568 5.05957H126.593C127.281 5.05957 127.818 4.93066 128.204 4.67285C128.595 4.41113 128.79 3.94824 128.79 3.28418C128.79 2.82715 128.716 2.46582 128.568 2.2002C128.423 1.93457 128.232 1.75293 127.993 1.65527C127.755 1.55762 127.286 1.50879 126.587 1.50879C126.126 1.50879 125.841 1.54199 125.732 1.6084C125.622 1.6709 125.568 1.78027 125.568 1.93652V5.05957ZM135.482 0.893555H135.874L138.986 8.82129C139.111 9.1416 139.366 9.30176 139.753 9.30176H140.023V9.74121H136.566V9.30176H136.841C137.2 9.30176 137.454 9.2627 137.603 9.18457C137.704 9.12988 137.755 9.0459 137.755 8.93262C137.755 8.86621 137.741 8.7959 137.714 8.72168L136.993 6.88184H133.572L133.167 7.93652C133.062 8.21777 133.009 8.44043 133.009 8.60449C133.009 8.7959 133.097 8.95996 133.273 9.09668C133.452 9.2334 133.712 9.30176 134.052 9.30176H134.345V9.74121H131.204V9.30176C131.54 9.30176 131.806 9.22949 132.001 9.08496C132.197 8.93652 132.376 8.65723 132.54 8.24707L135.482 0.893555ZM135.312 2.56348L133.759 6.4248H136.823L135.312 2.56348ZM140.374 1.0752H144.851C145.515 1.0752 146.079 1.19238 146.544 1.42676C147.122 1.72363 147.613 2.21777 148.015 2.90918C148.421 3.60059 148.624 4.41895 148.624 5.36426C148.624 6.14551 148.503 6.84863 148.261 7.47363C148.077 7.9541 147.794 8.37402 147.411 8.7334C147.032 9.09277 146.57 9.3623 146.023 9.54199C145.613 9.6748 145.066 9.74121 144.382 9.74121H140.374V9.30176H141.195C141.402 9.30176 141.544 9.26855 141.622 9.20215C141.704 9.13574 141.745 9.03223 141.745 8.8916V1.91309C141.745 1.79199 141.702 1.69629 141.616 1.62598C141.531 1.55176 141.411 1.51465 141.259 1.51465H140.374V1.0752ZM143.515 1.51465C143.339 1.51465 143.208 1.55176 143.122 1.62598C143.04 1.7002 142.999 1.81152 142.999 1.95996V8.87402C142.999 9.01465 143.048 9.12207 143.146 9.19629C143.243 9.2666 143.409 9.30176 143.644 9.30176H144.382C145.042 9.30176 145.62 9.13184 146.116 8.79199C146.441 8.56543 146.687 8.24707 146.855 7.83691C147.085 7.28223 147.2 6.5166 147.2 5.54004C147.2 4.09473 146.948 3.03613 146.445 2.36426C146.015 1.79785 145.366 1.51465 144.499 1.51465H143.515ZM24.9739 23.1377L25.1848 23.4658C24.8997 23.7588 24.5833 23.9053 24.2356 23.9053C23.97 23.9053 23.7454 23.833 23.5618 23.6885C23.3821 23.5439 23.2239 23.29 23.0872 22.9268C22.7161 23.3174 22.3899 23.5791 22.1086 23.7119C21.8274 23.8408 21.4895 23.9053 21.095 23.9053C20.5325 23.9053 20.1047 23.7842 19.8118 23.542C19.5188 23.2998 19.3723 22.9893 19.3723 22.6104C19.3723 22.04 19.7063 21.5674 20.3743 21.1924C21.0461 20.8135 21.9387 20.5615 23.052 20.4365V19.6045C23.052 19.3076 22.9329 19.0537 22.6946 18.8428C22.4563 18.6318 22.1536 18.5264 21.7864 18.5264C21.4465 18.5264 21.1536 18.5967 20.9075 18.7373C20.7317 18.8428 20.6438 18.9463 20.6438 19.0479C20.6438 19.1064 20.6907 19.1982 20.7844 19.3232C20.8977 19.4795 20.9543 19.6182 20.9543 19.7393C20.9543 19.915 20.8977 20.0596 20.7844 20.1729C20.6711 20.2822 20.5227 20.3369 20.3391 20.3369C20.1438 20.3369 19.9797 20.2705 19.8469 20.1377C19.718 20.0049 19.6536 19.835 19.6536 19.6279C19.6536 19.2412 19.8704 18.8877 20.304 18.5674C20.7415 18.2471 21.3137 18.0869 22.0208 18.0869C22.6731 18.0869 23.1711 18.2275 23.5149 18.5088C23.8586 18.7939 24.0305 19.1396 24.0305 19.5459V22.5459C24.0305 22.8115 24.0735 23.0068 24.1594 23.1318C24.2454 23.2607 24.3567 23.3252 24.4934 23.3252C24.6458 23.3252 24.8059 23.2627 24.9739 23.1377ZM23.052 20.8232C22.0598 20.96 21.3567 21.1826 20.9426 21.4912C20.634 21.7256 20.4797 22.0576 20.4797 22.4873C20.4797 22.7881 20.5598 23.0244 20.72 23.1963C20.8801 23.3643 21.0891 23.4482 21.3469 23.4482C21.8079 23.4482 22.2063 23.2744 22.5422 22.9268C22.8821 22.5752 23.052 22.1357 23.052 21.6084V20.8232ZM25.7649 18.251L27.7395 18.1514V20.3721C27.9504 19.6416 28.2043 19.0889 28.5012 18.7139C28.7981 18.3389 29.1653 18.1514 29.6028 18.1514C29.8997 18.1514 30.136 18.2432 30.3118 18.4268C30.4915 18.6064 30.5813 18.8486 30.5813 19.1533C30.5813 19.3994 30.5208 19.5908 30.3997 19.7275C30.2825 19.8643 30.134 19.9326 29.9543 19.9326C29.7786 19.9326 29.636 19.874 29.5266 19.7568C29.4211 19.6396 29.3684 19.4814 29.3684 19.2822C29.3684 19.1533 29.3997 19.0322 29.4622 18.9189C29.5208 18.8174 29.55 18.7568 29.55 18.7373C29.55 18.6787 29.5129 18.6494 29.4387 18.6494C29.2786 18.6494 29.0969 18.7432 28.8938 18.9307C28.6125 19.1924 28.3958 19.5518 28.2434 20.0088C28.009 20.7197 27.8918 21.2881 27.8918 21.7139V22.8916C27.8918 23.0244 27.9387 23.126 28.0325 23.1963C28.1262 23.2666 28.2864 23.3018 28.5129 23.3018H29.2102V23.7412H25.8V23.3018H26.345C26.5286 23.3018 26.6672 23.2666 26.761 23.1963C26.8547 23.1221 26.9016 23.0342 26.9016 22.9326V19.4346C26.9016 19.1689 26.845 18.9756 26.7317 18.8545C26.6184 18.7295 26.4563 18.667 26.2454 18.667H25.7649V18.251ZM35.3801 22.1123L35.761 22.2236C35.4563 23.3447 34.7844 23.9053 33.7454 23.9053C32.9836 23.9053 32.3606 23.6533 31.8762 23.1494C31.3918 22.6455 31.1497 21.9756 31.1497 21.1396C31.1497 20.1709 31.4153 19.4209 31.9465 18.8896C32.4778 18.3545 33.1028 18.0869 33.8215 18.0869C34.3606 18.0869 34.8059 18.2354 35.1575 18.5322C35.509 18.8291 35.6848 19.1592 35.6848 19.5225C35.6848 19.7412 35.6184 19.9229 35.4856 20.0674C35.3567 20.208 35.2024 20.2783 35.0227 20.2783C34.8469 20.2783 34.6985 20.2178 34.5774 20.0967C34.4563 19.9756 34.3958 19.8291 34.3958 19.6572C34.3958 19.4854 34.4622 19.3213 34.595 19.165C34.6575 19.0908 34.6887 19.0322 34.6887 18.9893C34.6887 18.876 34.6125 18.7666 34.4602 18.6611C34.3079 18.5518 34.1008 18.4971 33.8391 18.4971C33.3625 18.4971 33.0012 18.6709 32.7551 19.0186C32.4036 19.5225 32.2278 20.1865 32.2278 21.0107C32.2278 21.7959 32.384 22.3916 32.6965 22.7979C33.009 23.2002 33.4075 23.4014 33.8918 23.4014C34.5598 23.4014 35.0559 22.9717 35.3801 22.1123ZM36.3762 15.0752L38.4563 14.9756V19.2061C38.7454 18.8311 39.0559 18.5518 39.3879 18.3682C39.72 18.1807 40.0715 18.0869 40.4426 18.0869C40.7942 18.0869 41.1106 18.1709 41.3918 18.3389C41.6106 18.4717 41.7961 18.7041 41.9485 19.0361C42.1047 19.3682 42.1829 19.7607 42.1829 20.2139V22.8213C42.1829 22.9893 42.2258 23.1123 42.3118 23.1904C42.3977 23.2646 42.5325 23.3018 42.7161 23.3018H43.1848V23.7412H40.22V23.3018H40.5481C40.7981 23.3018 40.97 23.2627 41.0637 23.1846C41.1614 23.1025 41.2102 22.9814 41.2102 22.8213V20.2139C41.2102 19.7568 41.0989 19.4014 40.8762 19.1475C40.6575 18.8896 40.3762 18.7607 40.0325 18.7607C39.7629 18.7607 39.5129 18.833 39.2825 18.9775C39.052 19.1221 38.8567 19.3428 38.6965 19.6396C38.5364 19.9326 38.4563 20.2432 38.4563 20.5713V22.7627C38.4563 22.958 38.4973 23.0967 38.5793 23.1787C38.6614 23.2607 38.7961 23.3018 38.9836 23.3018H39.4524V23.7412H36.552V23.3018H36.8801C37.1028 23.3018 37.261 23.2588 37.3547 23.1729C37.4485 23.083 37.4954 22.9463 37.4954 22.7627V16.2119C37.4954 15.9775 37.4329 15.8037 37.3079 15.6904C37.1868 15.5732 37.009 15.5146 36.7747 15.5146H36.3762V15.0752ZM45.2649 14.9756C45.4407 14.9756 45.595 15.042 45.7278 15.1748C45.8606 15.3076 45.927 15.4639 45.927 15.6436C45.927 15.8193 45.8625 15.9717 45.7336 16.1006C45.6047 16.2295 45.4504 16.2939 45.2708 16.2939C45.0911 16.2939 44.9348 16.2295 44.802 16.1006C44.6731 15.9678 44.6086 15.8135 44.6086 15.6377C44.6086 15.4619 44.675 15.3076 44.8079 15.1748C44.9407 15.042 45.093 14.9756 45.2649 14.9756ZM43.7473 18.251L45.927 18.1865V22.9092C45.927 23.0381 45.9583 23.1299 46.0208 23.1846C46.1106 23.2627 46.2239 23.3018 46.3606 23.3018H46.9817V23.7412H43.8645V23.3018H44.4446C44.6165 23.3018 44.7415 23.2607 44.8196 23.1787C44.9016 23.0928 44.9426 22.9697 44.9426 22.8096V19.3525C44.9426 19.1338 44.8801 18.9697 44.7551 18.8604C44.6301 18.7471 44.4446 18.6904 44.1985 18.6904H43.7473V18.251ZM49.0793 16.0127H49.4778V18.251H51.2532V18.79H49.4778V22.3115C49.4778 22.6162 49.55 22.8506 49.6946 23.0146C49.8391 23.1748 50.0227 23.2549 50.2454 23.2549C50.511 23.2549 50.7375 23.1318 50.925 22.8857C51.1125 22.6396 51.2219 22.2334 51.2532 21.667H51.6458C51.6223 22.3975 51.4563 22.9404 51.1477 23.2959C50.8391 23.6475 50.4387 23.8232 49.9465 23.8232C49.4934 23.8232 49.1379 23.7002 48.8801 23.4541C48.6262 23.2041 48.4993 22.8779 48.4993 22.4756V18.79H47.5442V18.3799C47.9778 18.3057 48.3079 18.124 48.5344 17.835C48.8704 17.4014 49.052 16.7939 49.0793 16.0127ZM57.4641 21.0342H53.5325C53.552 21.8701 53.7083 22.46 54.0012 22.8037C54.3372 23.1904 54.7649 23.3838 55.2844 23.3838C56.05 23.3838 56.6653 22.9482 57.1301 22.0771L57.511 22.2412C56.9407 23.3506 56.1165 23.9053 55.0383 23.9053C54.304 23.9053 53.6848 23.6396 53.1809 23.1084C52.6809 22.5771 52.4309 21.8975 52.4309 21.0693C52.4309 20.1787 52.677 19.46 53.1692 18.9131C53.6653 18.3623 54.2747 18.0869 54.9973 18.0869C55.5286 18.0869 55.9875 18.2236 56.3743 18.4971C56.761 18.7705 57.052 19.1631 57.2473 19.6748C57.384 20.0342 57.4563 20.4873 57.4641 21.0342ZM53.5325 20.6182H55.9114C56.052 20.6182 56.1614 20.5713 56.2395 20.4775C56.3176 20.3799 56.3567 20.2158 56.3567 19.9854C56.3567 19.5557 56.2219 19.1904 55.9524 18.8896C55.6868 18.5889 55.3723 18.4385 55.009 18.4385C54.6028 18.4385 54.2571 18.6201 53.9719 18.9834C53.6907 19.3467 53.5442 19.8916 53.5325 20.6182ZM62.509 22.1123L62.8899 22.2236C62.5852 23.3447 61.9133 23.9053 60.8743 23.9053C60.1125 23.9053 59.4895 23.6533 59.0051 23.1494C58.5208 22.6455 58.2786 21.9756 58.2786 21.1396C58.2786 20.1709 58.5442 19.4209 59.0754 18.8896C59.6067 18.3545 60.2317 18.0869 60.9504 18.0869C61.4895 18.0869 61.9348 18.2354 62.2864 18.5322C62.6379 18.8291 62.8137 19.1592 62.8137 19.5225C62.8137 19.7412 62.7473 19.9229 62.6145 20.0674C62.4856 20.208 62.3313 20.2783 62.1516 20.2783C61.9758 20.2783 61.8274 20.2178 61.7063 20.0967C61.5852 19.9756 61.5247 19.8291 61.5247 19.6572C61.5247 19.4854 61.5911 19.3213 61.7239 19.165C61.7864 19.0908 61.8176 19.0322 61.8176 18.9893C61.8176 18.876 61.7415 18.7666 61.5891 18.6611C61.4368 18.5518 61.2297 18.4971 60.968 18.4971C60.4915 18.4971 60.1301 18.6709 59.884 19.0186C59.5325 19.5225 59.3567 20.1865 59.3567 21.0107C59.3567 21.7959 59.5129 22.3916 59.8254 22.7979C60.1379 23.2002 60.5364 23.4014 61.0208 23.4014C61.6887 23.4014 62.1848 22.9717 62.509 22.1123ZM65.0872 16.0127H65.4856V18.251H67.261V18.79H65.4856V22.3115C65.4856 22.6162 65.5579 22.8506 65.7024 23.0146C65.8469 23.1748 66.0305 23.2549 66.2532 23.2549C66.5188 23.2549 66.7454 23.1318 66.9329 22.8857C67.1204 22.6396 67.2297 22.2334 67.261 21.667H67.6536C67.6301 22.3975 67.4641 22.9404 67.1555 23.2959C66.8469 23.6475 66.4465 23.8232 65.9543 23.8232C65.5012 23.8232 65.1458 23.7002 64.8879 23.4541C64.634 23.2041 64.5071 22.8779 64.5071 22.4756V18.79H63.552V18.3799C63.9856 18.3057 64.3157 18.124 64.5422 17.835C64.8782 17.4014 65.0598 16.7939 65.0872 16.0127ZM70.2024 18.1514V21.79C70.2024 22.2354 70.3137 22.5791 70.5364 22.8213C70.7629 23.0635 71.054 23.1846 71.4094 23.1846C71.8469 23.1846 72.218 23.0088 72.5227 22.6572C72.8313 22.3018 72.9856 21.8584 72.9856 21.3271V19.2705C72.9856 19.083 72.9172 18.9385 72.7805 18.8369C72.6477 18.7314 72.3899 18.6729 72.0071 18.6611V18.251L73.9348 18.1514V22.6572C73.9348 22.8643 73.9934 23.0244 74.1106 23.1377C74.2278 23.2471 74.3918 23.3018 74.6028 23.3018H74.9485V23.6943L73.1028 23.7412L72.9856 22.6572C72.6575 23.0439 72.3274 23.335 71.9954 23.5303C71.6633 23.7256 71.3274 23.8232 70.9875 23.8232C70.4915 23.8232 70.0754 23.6572 69.7395 23.3252C69.3997 22.9971 69.2297 22.4404 69.2297 21.6553V19.2705C69.2297 19.0596 69.1458 18.8994 68.9778 18.79C68.8606 18.7119 68.6204 18.6689 68.2571 18.6611V18.251L70.2024 18.1514ZM75.5696 18.251L77.5442 18.1514V20.3721C77.7551 19.6416 78.009 19.0889 78.3059 18.7139C78.6028 18.3389 78.97 18.1514 79.4075 18.1514C79.7043 18.1514 79.9407 18.2432 80.1165 18.4268C80.2961 18.6064 80.386 18.8486 80.386 19.1533C80.386 19.3994 80.3254 19.5908 80.2043 19.7275C80.0872 19.8643 79.9387 19.9326 79.759 19.9326C79.5833 19.9326 79.4407 19.874 79.3313 19.7568C79.2258 19.6396 79.1731 19.4814 79.1731 19.2822C79.1731 19.1533 79.2043 19.0322 79.2668 18.9189C79.3254 18.8174 79.3547 18.7568 79.3547 18.7373C79.3547 18.6787 79.3176 18.6494 79.2434 18.6494C79.0833 18.6494 78.9016 18.7432 78.6985 18.9307C78.4172 19.1924 78.2004 19.5518 78.0481 20.0088C77.8137 20.7197 77.6965 21.2881 77.6965 21.7139V22.8916C77.6965 23.0244 77.7434 23.126 77.8372 23.1963C77.9309 23.2666 78.0911 23.3018 78.3176 23.3018H79.0149V23.7412H75.6047V23.3018H76.1497C76.3333 23.3018 76.4719 23.2666 76.5657 23.1963C76.6594 23.1221 76.7063 23.0342 76.7063 22.9326V19.4346C76.7063 19.1689 76.6497 18.9756 76.5364 18.8545C76.4231 18.7295 76.261 18.667 76.05 18.667H75.5696V18.251ZM86.7903 23.1377L87.0012 23.4658C86.7161 23.7588 86.3997 23.9053 86.052 23.9053C85.7864 23.9053 85.5618 23.833 85.3782 23.6885C85.1985 23.5439 85.0403 23.29 84.9036 22.9268C84.5325 23.3174 84.2063 23.5791 83.925 23.7119C83.6438 23.8408 83.3059 23.9053 82.9114 23.9053C82.3489 23.9053 81.9211 23.7842 81.6282 23.542C81.3352 23.2998 81.1887 22.9893 81.1887 22.6104C81.1887 22.04 81.5227 21.5674 82.1907 21.1924C82.8625 20.8135 83.7551 20.5615 84.8684 20.4365V19.6045C84.8684 19.3076 84.7493 19.0537 84.511 18.8428C84.2727 18.6318 83.97 18.5264 83.6028 18.5264C83.2629 18.5264 82.97 18.5967 82.7239 18.7373C82.5481 18.8428 82.4602 18.9463 82.4602 19.0479C82.4602 19.1064 82.5071 19.1982 82.6008 19.3232C82.7141 19.4795 82.7708 19.6182 82.7708 19.7393C82.7708 19.915 82.7141 20.0596 82.6008 20.1729C82.4875 20.2822 82.3391 20.3369 82.1555 20.3369C81.9602 20.3369 81.7961 20.2705 81.6633 20.1377C81.5344 20.0049 81.47 19.835 81.47 19.6279C81.47 19.2412 81.6868 18.8877 82.1204 18.5674C82.5579 18.2471 83.1301 18.0869 83.8372 18.0869C84.4895 18.0869 84.9875 18.2275 85.3313 18.5088C85.675 18.7939 85.8469 19.1396 85.8469 19.5459V22.5459C85.8469 22.8115 85.8899 23.0068 85.9758 23.1318C86.0618 23.2607 86.1731 23.3252 86.3098 23.3252C86.4622 23.3252 86.6223 23.2627 86.7903 23.1377ZM84.8684 20.8232C83.8762 20.96 83.1731 21.1826 82.759 21.4912C82.4504 21.7256 82.2961 22.0576 82.2961 22.4873C82.2961 22.7881 82.3762 23.0244 82.5364 23.1963C82.6965 23.3643 82.9055 23.4482 83.1633 23.4482C83.6243 23.4482 84.0227 23.2744 84.3586 22.9268C84.6985 22.5752 84.8684 22.1357 84.8684 21.6084V20.8232ZM89.7375 14.9756V22.9326C89.7375 23.042 89.7708 23.126 89.8372 23.1846C89.9348 23.2627 90.054 23.3018 90.1946 23.3018H90.7747V23.7412H87.6692V23.3018H88.22C88.3997 23.3018 88.5325 23.2588 88.6184 23.1729C88.7083 23.0869 88.7532 22.9658 88.7532 22.8096V16.1299C88.7532 15.9346 88.7004 15.792 88.595 15.7021C88.4504 15.5771 88.2727 15.5146 88.0618 15.5146H87.5696V15.0752L89.7375 14.9756ZM97.9055 15.0752L100.05 14.9756V22.4873C100.05 22.7803 100.105 22.9893 100.214 23.1143C100.327 23.2393 100.495 23.3018 100.718 23.3018H101.099V23.7412H99.2239L99.0833 22.6221C98.8606 23.0205 98.5989 23.3213 98.2981 23.5244C98.0012 23.7236 97.6672 23.8232 97.2961 23.8232C96.6711 23.8232 96.1379 23.5615 95.6965 23.0381C95.259 22.5146 95.0403 21.8232 95.0403 20.9639C95.0403 20.0342 95.3215 19.292 95.884 18.7373C96.3254 18.3037 96.8333 18.0869 97.4075 18.0869C97.759 18.0869 98.0735 18.1748 98.3508 18.3506C98.6321 18.5264 98.8762 18.792 99.0833 19.1475V16.0479C99.0833 15.8838 99.0188 15.7549 98.8899 15.6611C98.7649 15.5635 98.5676 15.5146 98.2981 15.5146H97.9055V15.0752ZM97.5657 18.5732C97.1438 18.5732 96.8079 18.7471 96.5579 19.0947C96.3118 19.4424 96.1887 20.0283 96.1887 20.8525C96.1887 21.7471 96.3157 22.3779 96.5696 22.7451C96.8235 23.1084 97.1497 23.29 97.5481 23.29C97.9739 23.29 98.3372 23.0869 98.6379 22.6807C98.9426 22.2705 99.095 21.6729 99.095 20.8877C99.095 20.1455 98.9329 19.5615 98.6086 19.1357C98.3274 18.7607 97.9797 18.5732 97.5657 18.5732ZM106.835 21.0342H102.904C102.923 21.8701 103.079 22.46 103.372 22.8037C103.708 23.1904 104.136 23.3838 104.656 23.3838C105.421 23.3838 106.036 22.9482 106.501 22.0771L106.882 22.2412C106.312 23.3506 105.488 23.9053 104.409 23.9053C103.675 23.9053 103.056 23.6396 102.552 23.1084C102.052 22.5771 101.802 21.8975 101.802 21.0693C101.802 20.1787 102.048 19.46 102.54 18.9131C103.036 18.3623 103.646 18.0869 104.368 18.0869C104.9 18.0869 105.359 18.2236 105.745 18.4971C106.132 18.7705 106.423 19.1631 106.618 19.6748C106.755 20.0342 106.827 20.4873 106.835 21.0342ZM102.904 20.6182H105.282C105.423 20.6182 105.532 20.5713 105.611 20.4775C105.689 20.3799 105.728 20.2158 105.728 19.9854C105.728 19.5557 105.593 19.1904 105.323 18.8896C105.058 18.5889 104.743 18.4385 104.38 18.4385C103.974 18.4385 103.628 18.6201 103.343 18.9834C103.062 19.3467 102.915 19.8916 102.904 20.6182ZM108.341 21.6729C108.583 22.3486 108.861 22.8174 109.173 23.0791C109.49 23.3369 109.878 23.4658 110.339 23.4658C110.765 23.4658 111.091 23.374 111.318 23.1904C111.548 23.0029 111.663 22.7666 111.663 22.4814C111.663 22.3174 111.62 22.1748 111.534 22.0537C111.452 21.9287 111.337 21.8369 111.189 21.7783C111.04 21.7158 110.656 21.626 110.034 21.5088C109.441 21.3916 109.027 21.2686 108.792 21.1396C108.558 21.0107 108.374 20.833 108.241 20.6064C108.113 20.3799 108.048 20.1338 108.048 19.8682C108.048 19.4658 108.183 19.1006 108.452 18.7725C108.8 18.3545 109.286 18.1455 109.911 18.1455C110.388 18.1455 110.829 18.2959 111.236 18.5967L111.622 18.1865H111.863L112.015 20.1436H111.622C111.45 19.5889 111.218 19.1904 110.925 18.9482C110.632 18.7021 110.271 18.5791 109.841 18.5791C109.47 18.5791 109.179 18.6709 108.968 18.8545C108.757 19.0342 108.652 19.2549 108.652 19.5166C108.652 19.7471 108.749 19.9385 108.945 20.0908C109.136 20.2471 109.511 20.3701 110.07 20.46C110.718 20.5693 111.14 20.6611 111.335 20.7354C111.656 20.8525 111.904 21.0342 112.079 21.2803C112.255 21.5225 112.343 21.8193 112.343 22.1709C112.343 22.6553 112.152 23.0654 111.769 23.4014C111.39 23.7373 110.907 23.9053 110.322 23.9053C109.779 23.9053 109.275 23.7256 108.81 23.3662L108.382 23.8584H108.072L107.954 21.6729H108.341ZM114.652 14.9756C114.827 14.9756 114.982 15.042 115.115 15.1748C115.247 15.3076 115.314 15.4639 115.314 15.6436C115.314 15.8193 115.249 15.9717 115.12 16.1006C114.991 16.2295 114.837 16.2939 114.657 16.2939C114.478 16.2939 114.322 16.2295 114.189 16.1006C114.06 15.9678 113.995 15.8135 113.995 15.6377C113.995 15.4619 114.062 15.3076 114.195 15.1748C114.327 15.042 114.48 14.9756 114.652 14.9756ZM113.134 18.251L115.314 18.1865V22.9092C115.314 23.0381 115.345 23.1299 115.407 23.1846C115.497 23.2627 115.611 23.3018 115.747 23.3018H116.368V23.7412H113.251V23.3018H113.831C114.003 23.3018 114.128 23.2607 114.206 23.1787C114.288 23.0928 114.329 22.9697 114.329 22.8096V19.3525C114.329 19.1338 114.267 18.9697 114.142 18.8604C114.017 18.7471 113.831 18.6904 113.585 18.6904H113.134V18.251ZM121.232 18.5615C121.622 18.167 121.982 17.9697 122.31 17.9697C122.505 17.9697 122.667 18.0322 122.796 18.1572C122.925 18.2822 122.99 18.4346 122.99 18.6143C122.99 18.7588 122.945 18.8799 122.855 18.9775C122.769 19.0713 122.667 19.1182 122.55 19.1182C122.327 19.1182 122.177 18.9814 122.099 18.708C122.068 18.5908 122.015 18.5322 121.941 18.5322C121.808 18.5322 121.663 18.6201 121.507 18.7959C121.675 19.0264 121.79 19.2275 121.853 19.3994C121.915 19.5674 121.947 19.749 121.947 19.9443C121.947 20.2842 121.865 20.585 121.7 20.8467C121.536 21.1045 121.263 21.333 120.88 21.5322C120.501 21.7314 120.138 21.8311 119.79 21.8311H119.152C118.698 21.8311 118.398 21.8779 118.249 21.9717C118.101 22.0693 118.027 22.2119 118.027 22.3994C118.027 22.5518 118.087 22.6689 118.208 22.751C118.329 22.833 118.558 22.874 118.894 22.874L120.341 22.8447C121.072 22.8447 121.597 22.9678 121.917 23.2139C122.241 23.4561 122.404 23.79 122.404 24.2158C122.404 24.6846 122.22 25.0791 121.853 25.3994C121.341 25.8525 120.577 26.0791 119.562 26.0791C118.722 26.0791 118.099 25.9248 117.693 25.6162C117.372 25.374 117.212 25.1025 117.212 24.8018C117.212 24.5713 117.314 24.3604 117.517 24.1689C117.724 23.9775 118.07 23.835 118.554 23.7412C118.167 23.6475 117.876 23.5107 117.681 23.3311C117.486 23.1475 117.388 22.9209 117.388 22.6514C117.388 22.4014 117.466 22.1846 117.622 22.001C117.782 21.8135 118.058 21.6533 118.448 21.5205C118.116 21.3369 117.866 21.1162 117.698 20.8584C117.531 20.5967 117.447 20.2979 117.447 19.9619C117.447 19.4307 117.656 18.9854 118.073 18.626C118.491 18.2666 119.034 18.0869 119.702 18.0869C119.976 18.0869 120.24 18.126 120.493 18.2041C120.747 18.2822 120.993 18.4014 121.232 18.5615ZM119.691 18.4619C119.343 18.4619 119.056 18.5908 118.829 18.8486C118.603 19.1025 118.49 19.46 118.49 19.9209C118.49 20.4131 118.603 20.7959 118.829 21.0693C119.056 21.3389 119.345 21.4736 119.697 21.4736C120.048 21.4736 120.335 21.3428 120.558 21.0811C120.784 20.8154 120.898 20.4365 120.898 19.9443C120.898 19.4873 120.782 19.126 120.552 18.8604C120.325 18.5947 120.038 18.4619 119.691 18.4619ZM120.036 23.7471C119.318 23.7471 118.804 23.8467 118.495 24.0459C118.191 24.2451 118.038 24.4854 118.038 24.7666C118.038 25.0322 118.154 25.2412 118.384 25.3936C118.689 25.5967 119.122 25.6982 119.685 25.6982C120.357 25.6982 120.863 25.5869 121.202 25.3643C121.542 25.1416 121.712 24.8936 121.712 24.6201C121.712 24.46 121.659 24.3096 121.554 24.1689C121.448 24.0322 121.281 23.9268 121.05 23.8525C120.82 23.7822 120.482 23.7471 120.036 23.7471ZM123.47 18.251L125.292 18.1396C125.366 18.4834 125.421 18.8857 125.456 19.3467C125.702 18.9482 125.991 18.6494 126.323 18.4502C126.659 18.251 127.038 18.1514 127.46 18.1514C127.823 18.1514 128.128 18.2236 128.374 18.3682C128.62 18.5088 128.818 18.7334 128.966 19.042C129.115 19.3506 129.189 19.6963 129.189 20.0791V22.751C129.189 22.9502 129.234 23.0928 129.323 23.1787C129.413 23.2607 129.564 23.3018 129.775 23.3018H130.161V23.7412H127.267V23.3018H127.542C127.8 23.3018 127.98 23.2607 128.081 23.1787C128.183 23.0967 128.234 22.9736 128.234 22.8096V20.46C128.234 19.9482 128.156 19.5693 127.999 19.3232C127.781 18.9717 127.448 18.7959 127.003 18.7959C126.562 18.7959 126.193 18.9736 125.896 19.3291C125.603 19.6846 125.456 20.1475 125.456 20.7178V22.751C125.456 22.9502 125.501 23.0928 125.591 23.1787C125.685 23.2607 125.837 23.3018 126.048 23.3018H126.429V23.7412H123.523V23.3018H123.904C124.095 23.3018 124.24 23.2627 124.337 23.1846C124.439 23.1064 124.49 23.0088 124.49 22.8916V19.3467C124.49 19.1123 124.425 18.9346 124.296 18.8135C124.171 18.6924 123.99 18.6318 123.751 18.6318H123.47V18.251Z" fill="#4B473F"/>
</svg>
